# xmcd
#
# Track frame offsets: 
#        150
#        22351
#        36452
#        56351
#        74103
#        98018
#        129995
#        145959
#        172961
#        193744
#        216969
#        238285
#        257345
#
# Disc length: 3600 seconds
#
# Revision: 0
# Processed by: cddbd v1.5.2PL0 Copyright (c) Steve Scherf et al.
# Submitted via: ExactAudioCopy v1.3
#
DISCID=c80e0e0d
DTITLE=Chris Antonik - Monarch
DYEAR=2017
DGENRE=Blues Rock
TTITLE0=I'd Burn It All Down (For You)
TTITLE1=You're Killing My Love
TTITLE2=Slow Moving Train
TTITLE3=Gold Star
TTITLE4=The Monarch And The Wrecking Ball
TTITLE5=Love, Bettike
TTITLE6=Forgiveness Is Free
TTITLE7=The Art Of Letting Go
TTITLE8=All Our Days
TTITLE9=New Religion
TTITLE10=Hungry Ghost
TTITLE11=A Slip In The Rain
TTITLE12=Everywhere I Go
EXTD=
EXTT0=
EXTT1=
EXTT2=
EXTT3=
EXTT4=
EXTT5=
EXTT6=
EXTT7=
EXTT8=
EXTT9=
EXTT10=
EXTT11=
EXTT12=
PLAYORDER=
